<?xml version="1.0" encoding="utf-8"?>
<svg width="726.6052px" height="525px" viewBox="0 0 726.6052 525" version="1.1" xmlns:xlink="http://www.w3.org/1999/xlink" xmlns="http://www.w3.org/2000/svg">
  <defs>
    <path d="M726.605 0L726.605 0L726.605 525L0 525L0 0L726.605 0Z" id="path_1" />
    <clipPath id="clip_1">
      <use xlink:href="#path_1" clip-rule="evenodd" fill-rule="evenodd" />
    </clipPath>
  </defs>
  <g id="Frame 2">
    <path d="M726.605 0L726.605 0L726.605 525L0 525L0 0L726.605 0Z" id="Frame-2" fill="none" stroke="none" />
    <g id="eyes" clip-path="url(#clip_1)">
      <g id="left-eye" transform="translate(0 3.814209)">
        <path d="M97.3505 81.5573C89.4374 93.4867 85.0629 103.945 85.0513 127.974C85.0513 171.813 121.702 204.271 166.912 204.271C200.718 204.806 213.448 192.458 226.643 179.172C216.058 170.778 202.042 159.9 186.63 148.109C183.307 155.761 175.672 161.114 166.785 161.114C154.845 161.114 145.166 151.453 145.166 139.535C145.166 132.757 148.297 126.709 153.194 122.753C133.342 107.83 113.517 93.1655 97.3505 81.5573Z" id="Oval-Subtract" fill="#E1AF4B" fill-rule="evenodd" stroke="none" />
        <path d="M55.8723 198.115C20.6442 167.13 12.6297 106.46 12.6297 106.46C12.6297 106.46 -2.18043 150.107 0.274687 190.408C1.06388 202.434 1.60026 210.689 35.7955 219.696C69.9905 228.703 139.66 243.873 160.89 255.15C104.493 224.096 91.1005 229.1 55.8723 198.115Z" id="Vector" fill="#E1AF4B" fill-rule="evenodd" stroke="none" />
        <path d="M31.4788 0C31.4788 0 163.666 69.2425 230.347 137.219C279.49 185.815 323.79 183.459 323.79 183.459C323.79 183.459 215.623 57.8304 31.4788 0Z" id="Vector-2" fill="#E1AF4B" fill-rule="evenodd" stroke="none" />
        <path d="M163.041 9.87061C163.041 9.87061 203.887 42.9172 211.544 50.1331C219.202 57.3492 270.236 81.7303 270.236 81.7303C270.236 81.7303 238.048 57.2299 230.079 50.1331C222.11 43.0364 206.331 30.8992 163.041 9.87061Z" id="Vector-3" fill="#E1AF4B" fill-rule="evenodd" stroke="none" />
      </g>
      <g id="right-eye" transform="translate(397.9558 0)">
        <path d="M229.716 82.7764C237.754 94.8842 242.199 105.499 242.211 129.888C242.211 174.383 204.977 207.326 159.047 207.326C124.704 207.868 111.771 195.337 98.3662 181.852C109.084 173.36 123.265 162.365 138.86 150.443C142.263 158.148 149.987 163.527 158.972 163.527C171.103 163.527 180.937 153.721 180.937 141.624C180.937 134.789 177.798 128.685 172.878 124.668C193.081 109.495 213.263 94.5788 229.716 82.7764Z" id="Oval-Subtract" fill="#E1AF4B" fill-rule="evenodd" stroke="none" />
        <path d="M271.887 201.067C307.675 169.621 315.818 108.051 315.818 108.051C315.818 108.051 330.865 152.346 328.37 193.245C327.568 205.45 327.024 213.828 292.283 222.968C257.542 232.109 186.762 247.505 165.193 258.948C222.491 227.433 236.096 232.512 271.887 201.067Z" id="Vector" fill="#E1AF4B" fill-rule="evenodd" stroke="none" />
        <path d="M296.942 0C296.942 0 162.663 70.2774 94.9247 139.27C45.003 188.592 0 186.201 0 186.201C0 186.201 109.882 58.6948 296.942 0Z" id="Vector-2" fill="#E1AF4B" fill-rule="evenodd" stroke="none" />
        <path d="M162.903 10.0183C162.903 10.0183 121.415 43.559 113.637 50.8828C105.86 58.2067 54.021 82.9522 54.021 82.9522C54.021 82.9522 86.7164 58.0857 94.8108 50.8828C102.906 43.6799 118.933 31.3613 162.903 10.0183Z" id="Vector-3" fill="#E1AF4B" fill-rule="evenodd" stroke="none" />
      </g>
      <g id="middle" transform="translate(316.32788 30.828003)">
        <path d="M0 21.709C0 21.709 18.7085 52.1779 49.3588 43.1584C28.7782 61.5565 24.3214 64.3551 0 21.709Z" id="Vector" fill="#E1AF4B" fill-rule="evenodd" stroke="none" />
        <path d="M63.4419 9.59798C63.4419 9.59798 75.9945 19.798 95.5621 0C77.1064 32.2903 73.8859 21.2816 63.4419 9.59798Z" id="Vector-2" fill="#E1AF4B" fill-rule="evenodd" stroke="none" />
        <path d="M20.563 76.6407C20.563 76.6407 43.6857 89.3397 68.6185 76.6407C43.3824 102.452 38.1487 92.4737 20.563 76.6407Z" id="Vector-3" fill="#E1AF4B" fill-rule="evenodd" stroke="none" />
      </g>
    </g>
    <path d="M101.772 525L35 525L110.229 297L194.807 297L270.036 525L203.264 525L190.133 481.359L114.903 481.359L101.772 525ZM128.925 435.047L176.111 435.047L153.408 359.789L151.628 359.789L128.925 435.047ZM357.658 525L357.658 297L456.035 297C472.951 297 487.752 300.34 500.438 307.02C513.125 313.699 522.992 323.088 530.04 335.186C537.088 347.283 540.612 361.422 540.612 377.602C540.612 393.93 536.996 408.068 529.762 420.018C522.528 431.967 512.401 441.17 499.381 447.627C486.361 454.084 471.17 457.312 453.809 457.312L419.533 457.312L419.533 525L357.658 525ZM419.533 409.219L441.345 409.219C452.177 409.219 460.672 406.38 466.83 400.702C472.988 395.024 476.066 387.324 476.066 377.602C476.066 367.805 472.988 360.16 466.83 354.668C460.672 349.176 452.177 346.43 441.345 346.43L419.533 346.43L419.533 409.219ZM691 297L691 525L629.125 525L629.125 297L691 297Z" id="Path" fill="#E1AF4B" fill-rule="evenodd" stroke="none" clip-path="url(#clip_1)" />
  </g>
</svg>